# MagicaVoxel @ Ephtracy

# group
o 

# material
mtllib livingroom.mtl
usemtl palette

# normals
vn -1 0 0
vn 1 0 0
vn 0 0 1
vn 0 0 -1
vn 0 -1 0
vn 0 1 0

# texcoords
vt 0.662109 0.5
vt 0.677734 0.5
vt 0.697266 0.5
vt 0.732422 0.5
vt 0.748047 0.5
vt 0.755859 0.5
vt 0.771484 0.5
vt 0.802734 0.5
vt 0.822266 0.5
vt 0.837891 0.5
vt 0.845703 0.5
vt 0.849609 0.5
vt 0.853516 0.5
vt 0.884766 0.5
vt 0.888672 0.5
vt 0.892578 0.5
vt 0.896484 0.5
vt 0.900391 0.5
vt 0.904297 0.5
vt 0.916016 0.5
vt 0.923828 0.5
vt 0.982422 0.5
vt 0.990234 0.5

# verts
v 0 2.9 0
v 0 2.9 -4
v 0 3 0
v 0 3 -1.5
v 0 3 -1.6
v 0 3 -1.7
v 0 3 -1.8
v 0 3 -1.9
v 0 3 -2.3
v 0 3 -2.7
v 0 3 -3.6
v 0 3 -3.7
v 0 3 -3.8
v 0 3 -3.9
v 0 3.1 0
v 0 3.1 -1.5
v 0 3.1 -1.6
v 0 3.1 -1.7
v 0 3.1 -1.8
v 0 3.1 -1.9
v 0 3.1 -2.3
v 0 3.1 -2.7
v 0 3.1 -3.6
v 0 3.1 -3.7
v 0 3.1 -3.8
v 0 3.1 -3.9
v 0 5.7 -3.9
v 0 5.7 -4
v 0.3 3.1 -0.9
v 0.3 3.1 -1.5
v 0.3 3.1 -1.6
v 0.3 3.1 -1.7
v 0.3 3.1 -2.8
v 0.3 4 -0.9
v 0.3 4 -2.8
v 1.8 3.1 -1.1
v 1.8 3.1 -1.2
v 1.8 3.1 -2.5
v 1.8 3.1 -2.6
v 1.8 3.4 -1.2
v 1.8 3.4 -2.5
v 1.8 3.5 -1.1
v 1.8 3.5 -2.6
v 2 3.5 -2.2
v 2 3.5 -2.3
v 2 3.6 -2.2
v 2 3.6 -2.3
v 2.4 3.1 -1.1
v 2.4 3.1 -1.2
v 2.4 3.1 -2.5
v 2.4 3.1 -2.6
v 2.4 3.4 -1.1
v 2.4 3.4 -1.2
v 2.4 3.4 -2.5
v 2.4 3.4 -2.6
v 3.3 3.1 -0.9
v 3.3 3.1 -2.4
v 3.3 3.1 -2.5
v 3.3 3.1 -2.6
v 3.3 3.1 -2.8
v 3.3 3.3 -1
v 3.3 3.3 -1.1
v 3.3 3.3 -1.2
v 3.3 3.3 -1.4
v 3.3 3.3 -1.5
v 3.3 3.3 -1.6
v 3.3 3.3 -2.4
v 3.3 3.3 -2.5
v 3.3 3.3 -2.7
v 3.3 3.5 -1.4
v 3.3 3.5 -1.5
v 3.3 3.6 -1
v 3.3 3.6 -1.1
v 3.3 3.6 -1.2
v 3.3 3.6 -1.5
v 3.3 3.6 -1.6
v 3.3 3.6 -2.4
v 3.3 3.6 -2.5
v 3.3 3.6 -2.7
v 3.3 3.7 -0.9
v 3.3 3.7 -2.8
v 3.4 3.3 -1.3
v 3.4 3.3 -1.4
v 3.4 3.3 -2
v 3.4 3.3 -2.1
v 3.4 3.3 -2.3
v 3.4 3.3 -2.4
v 3.4 3.5 -1.3
v 3.4 3.5 -1.4
v 3.4 3.6 -2
v 3.4 3.6 -2.1
v 3.4 3.6 -2.3
v 3.4 3.6 -2.4
v 3.5 3.7 -1.5
v 3.5 3.7 -2.2
v 3.5 3.8 -1.5
v 3.5 3.8 -2.2
v 3.6 3.3 -1
v 3.6 3.3 -1.1
v 3.6 3.3 -1.2
v 3.6 3.3 -1.3
v 3.6 3.3 -1.6
v 3.6 3.3 -2
v 3.6 3.3 -2.1
v 3.6 3.3 -2.3
v 3.6 3.3 -2.5
v 3.6 3.3 -2.7
v 3.6 3.4 -1.4
v 3.6 3.4 -1.5
v 3.6 3.5 -1.3
v 3.6 3.5 -1.4
v 3.6 3.6 -1
v 3.6 3.6 -1.1
v 3.6 3.6 -1.2
v 3.6 3.6 -1.5
v 3.6 3.6 -1.6
v 3.6 3.6 -2
v 3.6 3.6 -2.1
v 3.6 3.6 -2.3
v 3.6 3.6 -2.5
v 3.6 3.6 -2.7
v 3.6 3.8 -1.7
v 3.6 3.8 -2
v 3.6 3.9 -1.3
v 3.6 3.9 -1.7
v 3.6 3.9 -2
v 3.6 3.9 -2.4
v 3.6 4 -1.4
v 3.6 4 -2.3
v 3.6 4.4 -1.4
v 3.6 4.4 -2.3
v 3.6 4.5 -1.3
v 3.6 4.5 -2.4
v 3.9 3.1 0
v 3.9 3.1 -0.5
v 3.9 3.1 -0.6
v 3.9 3.1 -0.9
v 3.9 3.1 -2.8
v 3.9 3.1 -3
v 3.9 3.1 -3.1
v 3.9 3.1 -3.7
v 3.9 3.1 -3.9
v 3.9 3.7 -0.9
v 3.9 3.7 -2.8
v 3.9 5.7 0
v 3.9 5.7 -3.9
v 0.6 3.5 -1.1
v 0.6 3.5 -2.6
v 0.6 3.7 -0.9
v 0.6 3.7 -1.1
v 0.6 3.7 -2.6
v 0.6 3.7 -2.8
v 0.6 4 -0.9
v 0.6 4 -2.8
v 1.2 3.1 -0.9
v 1.2 3.1 -1.6
v 1.2 3.1 -1.7
v 1.2 3.1 -2.8
v 1.2 3.3 -1.1
v 1.2 3.3 -2.6
v 1.2 3.5 -1.1
v 1.2 3.5 -2.6
v 1.2 3.7 -0.9
v 1.2 3.7 -1.1
v 1.2 3.7 -2.6
v 1.2 3.7 -2.8
v 1.9 3.1 -1.1
v 1.9 3.1 -1.2
v 1.9 3.1 -2.5
v 1.9 3.1 -2.6
v 1.9 3.4 -1.1
v 1.9 3.4 -1.2
v 1.9 3.4 -2.5
v 1.9 3.4 -2.6
v 2.3 3.5 -2.2
v 2.3 3.5 -2.3
v 2.3 3.6 -2.2
v 2.3 3.6 -2.3
v 2.5 3.1 -1.1
v 2.5 3.1 -1.2
v 2.5 3.1 -2.5
v 2.5 3.1 -2.6
v 2.5 3.4 -1.2
v 2.5 3.4 -2.5
v 2.5 3.5 -1.1
v 2.5 3.5 -2.6
v 3.5 3.4 -1.4
v 3.5 3.4 -1.5
v 3.5 3.5 -1.4
v 3.5 3.5 -1.5
v 3.7 3.8 -1.7
v 3.7 3.8 -2
v 3.7 3.9 -1.3
v 3.7 3.9 -1.7
v 3.7 3.9 -2
v 3.7 3.9 -2.4
v 3.7 4 -1.4
v 3.7 4 -2.3
v 3.7 4.4 -1.4
v 3.7 4.4 -2.3
v 3.7 4.5 -1.3
v 3.7 4.5 -2.4
v 3.8 3.7 -1.5
v 3.8 3.7 -2.2
v 3.8 3.8 -1.5
v 3.8 3.8 -2.2
v 4 2.9 0
v 4 2.9 -4
v 4 5.7 0
v 4 5.7 -4
v 0 2.9 0
v 0 3 0
v 0 3.1 0
v 0.4 3 0
v 0.4 3.1 0
v 0.5 3 0
v 0.5 3.1 0
v 0.9 3 0
v 0.9 3.1 0
v 1 3 0
v 1 3.1 0
v 1.5 3 0
v 1.5 3.1 0
v 1.6 3 0
v 1.6 3.1 0
v 2 3 0
v 2 3.1 0
v 2.1 3 0
v 2.1 3.1 0
v 2.5 3 0
v 2.5 3.1 0
v 2.6 3 0
v 2.6 3.1 0
v 3 3 0
v 3 3.1 0
v 3.1 3 0
v 3.1 3.1 0
v 3.4 3 0
v 3.4 3.1 0
v 3.5 3 0
v 3.5 3.1 0
v 3.6 3 0
v 3.6 3.1 0
v 3.9 3 0
v 3.9 3.1 0
v 3.9 5.7 0
v 4 2.9 0
v 4 5.7 0
v 0.3 3.1 -0.9
v 0.3 4 -0.9
v 0.4 3.1 -0.9
v 0.5 3.1 -0.9
v 0.6 3.7 -0.9
v 0.6 4 -0.9
v 0.9 3.1 -0.9
v 1 3.1 -0.9
v 1.2 3.1 -0.9
v 1.2 3.7 -0.9
v 3.3 3.1 -0.9
v 3.3 3.7 -0.9
v 3.4 3.1 -0.9
v 3.5 3.1 -0.9
v 3.9 3.1 -0.9
v 3.9 3.7 -0.9
v 1.8 3.1 -1.1
v 1.8 3.5 -1.1
v 1.9 3.1 -1.1
v 1.9 3.4 -1.1
v 2.4 3.1 -1.1
v 2.4 3.4 -1.1
v 2.5 3.1 -1.1
v 2.5 3.5 -1.1
v 3.3 3.3 -1.1
v 3.3 3.6 -1.1
v 3.6 3.3 -1.1
v 3.6 3.6 -1.1
v 3.4 3.3 -1.3
v 3.4 3.5 -1.3
v 3.6 3.3 -1.3
v 3.6 3.5 -1.3
v 3.6 3.9 -1.3
v 3.6 4.5 -1.3
v 3.7 3.9 -1.3
v 3.7 4.5 -1.3
v 3.3 3.3 -1.4
v 3.3 3.5 -1.4
v 3.4 3.3 -1.4
v 3.4 3.5 -1.4
v 3.3 3.5 -1.5
v 3.3 3.6 -1.5
v 3.5 3.4 -1.5
v 3.5 3.5 -1.5
v 3.5 3.7 -1.5
v 3.5 3.8 -1.5
v 3.6 3.4 -1.5
v 3.6 3.6 -1.5
v 3.8 3.7 -1.5
v 3.8 3.8 -1.5
v 3.6 3.8 -1.7
v 3.6 3.9 -1.7
v 3.7 3.8 -1.7
v 3.7 3.9 -1.7
v 3.4 3.3 -2
v 3.4 3.6 -2
v 3.6 3.3 -2
v 3.6 3.6 -2
v 2 3.5 -2.2
v 2 3.6 -2.2
v 2.3 3.5 -2.2
v 2.3 3.6 -2.2
v 3.4 3.3 -2.3
v 3.4 3.6 -2.3
v 3.6 3.3 -2.3
v 3.6 3.6 -2.3
v 3.3 3.3 -2.4
v 3.3 3.6 -2.4
v 3.4 3.3 -2.4
v 3.4 3.6 -2.4
v 1.8 3.1 -2.5
v 1.8 3.4 -2.5
v 1.9 3.1 -2.5
v 1.9 3.4 -2.5
v 2.4 3.1 -2.5
v 2.4 3.4 -2.5
v 2.5 3.1 -2.5
v 2.5 3.4 -2.5
v 0.6 3.5 -2.6
v 0.6 3.7 -2.6
v 1.2 3.5 -2.6
v 1.2 3.7 -2.6
v 3.3 3.3 -2.7
v 3.3 3.6 -2.7
v 3.6 3.3 -2.7
v 3.6 3.6 -2.7
v 0 3.1 -3.9
v 0 5.7 -3.9
v 0.4 3.1 -3.9
v 0.5 3.1 -3.9
v 0.9 3.1 -3.9
v 1 3.1 -3.9
v 1.5 3.1 -3.9
v 1.6 3.1 -3.9
v 2 3.1 -3.9
v 2.1 3.1 -3.9
v 2.5 3.1 -3.9
v 2.6 3.1 -3.9
v 2.7 3.1 -3.9
v 3 3.1 -3.9
v 3.1 3.1 -3.9
v 3.3 3.1 -3.9
v 3.4 3.1 -3.9
v 3.5 3.1 -3.9
v 3.7 3.1 -3.9
v 3.9 3.1 -3.9
v 3.9 5.7 -3.9
v 3.3 3.3 -1
v 3.3 3.6 -1
v 3.6 3.3 -1
v 3.6 3.6 -1
v 0.6 3.5 -1.1
v 0.6 3.7 -1.1
v 1.2 3.5 -1.1
v 1.2 3.7 -1.1
v 1.8 3.1 -1.2
v 1.8 3.4 -1.2
v 1.9 3.1 -1.2
v 1.9 3.4 -1.2
v 2.4 3.1 -1.2
v 2.4 3.4 -1.2
v 2.5 3.1 -1.2
v 2.5 3.4 -1.2
v 3.3 3.3 -1.2
v 3.3 3.6 -1.2
v 3.6 3.3 -1.2
v 3.6 3.6 -1.2
v 3.5 3.4 -1.4
v 3.5 3.5 -1.4
v 3.6 3.4 -1.4
v 3.6 3.5 -1.4
v 3.3 3.3 -1.6
v 3.3 3.6 -1.6
v 3.6 3.3 -1.6
v 3.6 3.6 -1.6
v 3.6 3.8 -2
v 3.6 3.9 -2
v 3.7 3.8 -2
v 3.7 3.9 -2
v 3.4 3.3 -2.1
v 3.4 3.6 -2.1
v 3.6 3.3 -2.1
v 3.6 3.6 -2.1
v 3.5 3.7 -2.2
v 3.5 3.8 -2.2
v 3.8 3.7 -2.2
v 3.8 3.8 -2.2
v 2 3.5 -2.3
v 2 3.6 -2.3
v 2.3 3.5 -2.3
v 2.3 3.6 -2.3
v 3.6 3.9 -2.4
v 3.6 4.5 -2.4
v 3.7 3.9 -2.4
v 3.7 4.5 -2.4
v 3.3 3.3 -2.5
v 3.3 3.6 -2.5
v 3.6 3.3 -2.5
v 3.6 3.6 -2.5
v 1.8 3.1 -2.6
v 1.8 3.5 -2.6
v 1.9 3.1 -2.6
v 1.9 3.4 -2.6
v 2.4 3.1 -2.6
v 2.4 3.4 -2.6
v 2.5 3.1 -2.6
v 2.5 3.5 -2.6
v 0.3 3.1 -2.8
v 0.3 4 -2.8
v 0.4 3.1 -2.8
v 0.5 3.1 -2.8
v 0.6 3.1 -2.8
v 0.6 3.7 -2.8
v 0.6 4 -2.8
v 0.7 3.1 -2.8
v 0.9 3.1 -2.8
v 1 3.1 -2.8
v 1.1 3.1 -2.8
v 1.2 3.1 -2.8
v 1.2 3.7 -2.8
v 3.3 3.1 -2.8
v 3.3 3.7 -2.8
v 3.4 3.1 -2.8
v 3.5 3.1 -2.8
v 3.7 3.1 -2.8
v 3.8 3.1 -2.8
v 3.9 3.1 -2.8
v 3.9 3.7 -2.8
v 0 2.9 -4
v 0 5.7 -4
v 4 2.9 -4
v 4 5.7 -4
v 0 2.9 0
v 4 2.9 0
v 0.3 2.9 -0.9
v 1.2 2.9 -0.9
v 0.3 2.9 -2.8
v 1.2 2.9 -2.8
v 0 2.9 -4
v 4 2.9 -4
v 1.9 3.4 -1.1
v 2.4 3.4 -1.1
v 1.8 3.4 -1.2
v 1.9 3.4 -1.2
v 2.4 3.4 -1.2
v 2.5 3.4 -1.2
v 1.8 3.4 -2.5
v 1.9 3.4 -2.5
v 2.4 3.4 -2.5
v 2.5 3.4 -2.5
v 1.9 3.4 -2.6
v 2.4 3.4 -2.6
v 3.3 3.6 -1
v 3.6 3.6 -1
v 3.3 3.6 -1.1
v 3.6 3.6 -1.1
v 3.3 3.6 -1.2
v 3.6 3.6 -1.2
v 3.3 3.6 -1.5
v 3.6 3.6 -1.5
v 3.3 3.6 -1.6
v 3.6 3.6 -1.6
v 3.4 3.6 -2
v 3.6 3.6 -2
v 3.4 3.6 -2.1
v 3.6 3.6 -2.1
v 3.4 3.6 -2.3
v 3.6 3.6 -2.3
v 3.3 3.6 -2.4
v 3.4 3.6 -2.4
v 3.3 3.6 -2.5
v 3.6 3.6 -2.5
v 3.3 3.6 -2.7
v 3.6 3.6 -2.7
v 3.6 3.9 -1.3
v 3.7 3.9 -1.3
v 3.6 3.9 -1.7
v 3.7 3.9 -1.7
v 3.6 3.9 -2
v 3.7 3.9 -2
v 3.6 3.9 -2.4
v 3.7 3.9 -2.4
v 0 3.1 0
v 0.4 3.1 0
v 0.5 3.1 0
v 0.9 3.1 0
v 1 3.1 0
v 1.5 3.1 0
v 1.6 3.1 0
v 2 3.1 0
v 2.1 3.1 0
v 2.5 3.1 0
v 2.6 3.1 0
v 3 3.1 0
v 3.1 3.1 0
v 3.4 3.1 0
v 3.5 3.1 0
v 3.6 3.1 0
v 3.9 3.1 0
v 1 3.1 -0.1
v 1.1 3.1 -0.1
v 1.6 3.1 -0.1
v 1.7 3.1 -0.1
v 3.1 3.1 -0.1
v 3.4 3.1 -0.1
v 3.5 3.1 -0.1
v 3.6 3.1 -0.1
v 3.7 3.1 -0.1
v 0.2 3.1 -0.2
v 0.3 3.1 -0.2
v 0.5 3.1 -0.2
v 0.9 3.1 -0.2
v 2.6 3.1 -0.2
v 3 3.1 -0.2
v 3.1 3.1 -0.2
v 3.2 3.1 -0.2
v 3.3 3.1 -0.2
v 3.4 3.1 -0.2
v 3.6 3.1 -0.2
v 3.7 3.1 -0.2
v 0.5 3.1 -0.3
v 0.6 3.1 -0.3
v 0.7 3.1 -0.3
v 0.9 3.1 -0.3
v 2.6 3.1 -0.3
v 2.8 3.1 -0.3
v 2.9 3.1 -0.3
v 3 3.1 -0.3
v 0.5 3.1 -0.4
v 0.6 3.1 -0.4
v 0.7 3.1 -0.4
v 2.3 3.1 -0.4
v 2.4 3.1 -0.4
v 2.7 3.1 -0.4
v 2.8 3.1 -0.4
v 0.2 3.1 -0.5
v 0.3 3.1 -0.5
v 0.5 3.1 -0.5
v 0.6 3.1 -0.5
v 1.6 3.1 -0.5
v 1.7 3.1 -0.5
v 2.7 3.1 -0.5
v 2.8 3.1 -0.5
v 3.1 3.1 -0.5
v 3.2 3.1 -0.5
v 3.3 3.1 -0.5
v 3.5 3.1 -0.5
v 3.9 3.1 -0.5
v 3.1 3.1 -0.6
v 3.2 3.1 -0.6
v 3.5 3.1 -0.6
v 3.7 3.1 -0.6
v 3.9 3.1 -0.6
v 1 3.1 -0.7
v 1.1 3.1 -0.7
v 2.3 3.1 -0.7
v 2.4 3.1 -0.7
v 3.6 3.1 -0.7
v 3.7 3.1 -0.7
v 1.3 3.1 -0.8
v 1.4 3.1 -0.8
v 2.8 3.1 -0.8
v 2.9 3.1 -0.8
v 3.5 3.1 -0.8
v 3.6 3.1 -0.8
v 0.3 3.1 -0.9
v 0.4 3.1 -0.9
v 0.5 3.1 -0.9
v 0.9 3.1 -0.9
v 1 3.1 -0.9
v 1.2 3.1 -0.9
v 1.6 3.1 -0.9
v 2 3.1 -0.9
v 2.1 3.1 -0.9
v 2.5 3.1 -0.9
v 2.6 3.1 -0.9
v 2.7 3.1 -0.9
v 3.3 3.1 -0.9
v 3.4 3.1 -0.9
v 3.5 3.1 -0.9
v 3.9 3.1 -0.9
v 0.1 3.1 -1
v 0.2 3.1 -1
v 0.1 3.1 -1.1
v 0.2 3.1 -1.1
v 1.8 3.1 -1.1
v 1.9 3.1 -1.1
v 2.4 3.1 -1.1
v 2.5 3.1 -1.1
v 0.1 3.1 -1.2
v 0.2 3.1 -1.2
v 1.8 3.1 -1.2
v 1.9 3.1 -1.2
v 2.4 3.1 -1.2
v 2.5 3.1 -1.2
v 0.1 3.1 -1.3
v 0.2 3.1 -1.3
v 1.3 3.1 -1.3
v 1.4 3.1 -1.3
v 2.9 3.1 -1.3
v 3 3.1 -1.3
v 0 3.1 -1.5
v 0.3 3.1 -1.5
v 0 3.1 -1.6
v 0.3 3.1 -1.6
v 1.2 3.1 -1.6
v 1.5 3.1 -1.6
v 2.8 3.1 -1.6
v 2.9 3.1 -1.6
v 3 3.1 -1.6
v 0 3.1 -1.7
v 0.3 3.1 -1.7
v 1.2 3.1 -1.7
v 1.5 3.1 -1.7
v 0 3.1 -1.8
v 0.1 3.1 -1.8
v 2.8 3.1 -1.8
v 2.9 3.1 -1.8
v 0 3.1 -1.9
v 0.1 3.1 -1.9
v 1.4 3.1 -2
v 1.5 3.1 -2
v 0 3.1 -2.3
v 0.1 3.1 -2.3
v 1.4 3.1 -2.4
v 1.5 3.1 -2.4
v 3.1 3.1 -2.4
v 3.3 3.1 -2.4
v 1.8 3.1 -2.5
v 1.9 3.1 -2.5
v 2.4 3.1 -2.5
v 2.5 3.1 -2.5
v 3.1 3.1 -2.5
v 3.2 3.1 -2.5
v 3.3 3.1 -2.5
v 1.8 3.1 -2.6
v 1.9 3.1 -2.6
v 2.4 3.1 -2.6
v 2.5 3.1 -2.6
v 3.2 3.1 -2.6
v 3.3 3.1 -2.6
v 0 3.1 -2.7
v 0.1 3.1 -2.7
v 0.3 3.1 -2.8
v 0.4 3.1 -2.8
v 0.5 3.1 -2.8
v 0.6 3.1 -2.8
v 0.7 3.1 -2.8
v 0.9 3.1 -2.8
v 1 3.1 -2.8
v 1.1 3.1 -2.8
v 1.2 3.1 -2.8
v 1.6 3.1 -2.8
v 2 3.1 -2.8
v 2.1 3.1 -2.8
v 2.2 3.1 -2.8
v 2.3 3.1 -2.8
v 2.5 3.1 -2.8
v 2.6 3.1 -2.8
v 2.7 3.1 -2.8
v 3.3 3.1 -2.8
v 3.4 3.1 -2.8
v 3.5 3.1 -2.8
v 3.7 3.1 -2.8
v 3.8 3.1 -2.8
v 3.9 3.1 -2.8
v 1 3.1 -2.9
v 1.1 3.1 -2.9
v 3.6 3.1 -2.9
v 3.7 3.1 -2.9
v 3.8 3.1 -2.9
v 0.6 3.1 -3
v 0.7 3.1 -3
v 1.6 3.1 -3
v 1.7 3.1 -3
v 2.1 3.1 -3
v 2.2 3.1 -3
v 2.3 3.1 -3
v 3.5 3.1 -3
v 3.6 3.1 -3
v 3.7 3.1 -3
v 3.9 3.1 -3
v 0.5 3.1 -3.1
v 0.9 3.1 -3.1
v 3.5 3.1 -3.1
v 3.9 3.1 -3.1
v 0.5 3.1 -3.2
v 0.9 3.1 -3.2
v 2.6 3.1 -3.2
v 3 3.1 -3.2
v 1.7 3.1 -3.3
v 1.8 3.1 -3.3
v 2.6 3.1 -3.3
v 3 3.1 -3.3
v 1.6 3.1 -3.4
v 1.8 3.1 -3.4
v 2 3.1 -3.4
v 2.1 3.1 -3.4
v 2.2 3.1 -3.4
v 2.8 3.1 -3.4
v 2.9 3.1 -3.4
v 0.2 3.1 -3.5
v 0.4 3.1 -3.5
v 1.4 3.1 -3.5
v 1.5 3.1 -3.5
v 1.6 3.1 -3.5
v 2 3.1 -3.5
v 2.8 3.1 -3.5
v 2.9 3.1 -3.5
v 0 3.1 -3.6
v 0.2 3.1 -3.6
v 0.4 3.1 -3.6
v 1 3.1 -3.6
v 1.4 3.1 -3.6
v 1.5 3.1 -3.6
v 2.7 3.1 -3.6
v 2.8 3.1 -3.6
v 0 3.1 -3.7
v 0.1 3.1 -3.7
v 0.4 3.1 -3.7
v 1 3.1 -3.7
v 1.2 3.1 -3.7
v 1.5 3.1 -3.7
v 1.6 3.1 -3.7
v 1.7 3.1 -3.7
v 2.6 3.1 -3.7
v 2.7 3.1 -3.7
v 2.8 3.1 -3.7
v 3.2 3.1 -3.7
v 3.3 3.1 -3.7
v 3.8 3.1 -3.7
v 3.9 3.1 -3.7
v 0 3.1 -3.8
v 0.1 3.1 -3.8
v 1 3.1 -3.8
v 1.2 3.1 -3.8
v 1.6 3.1 -3.8
v 1.7 3.1 -3.8
v 3.2 3.1 -3.8
v 3.3 3.1 -3.8
v 3.4 3.1 -3.8
v 3.7 3.1 -3.8
v 3.8 3.1 -3.8
v 0 3.1 -3.9
v 0.4 3.1 -3.9
v 0.5 3.1 -3.9
v 0.9 3.1 -3.9
v 1 3.1 -3.9
v 1.5 3.1 -3.9
v 1.6 3.1 -3.9
v 2 3.1 -3.9
v 2.1 3.1 -3.9
v 2.5 3.1 -3.9
v 2.6 3.1 -3.9
v 2.7 3.1 -3.9
v 3 3.1 -3.9
v 3.1 3.1 -3.9
v 3.3 3.1 -3.9
v 3.4 3.1 -3.9
v 3.5 3.1 -3.9
v 3.7 3.1 -3.9
v 3.9 3.1 -3.9
v 3.3 3.3 -1
v 3.6 3.3 -1
v 3.3 3.3 -1.1
v 3.6 3.3 -1.1
v 3.3 3.3 -1.2
v 3.6 3.3 -1.2
v 3.4 3.3 -1.3
v 3.6 3.3 -1.3
v 3.3 3.3 -1.4
v 3.4 3.3 -1.4
v 3.3 3.3 -1.6
v 3.6 3.3 -1.6
v 3.4 3.3 -2
v 3.6 3.3 -2
v 3.4 3.3 -2.1
v 3.6 3.3 -2.1
v 3.4 3.3 -2.3
v 3.6 3.3 -2.3
v 3.3 3.3 -2.4
v 3.4 3.3 -2.4
v 3.3 3.3 -2.5
v 3.6 3.3 -2.5
v 3.3 3.3 -2.7
v 3.6 3.3 -2.7
v 3.5 3.4 -1.4
v 3.6 3.4 -1.4
v 3.5 3.4 -1.5
v 3.6 3.4 -1.5
v 0.6 3.5 -1.1
v 1.2 3.5 -1.1
v 1.8 3.5 -1.1
v 2.5 3.5 -1.1
v 1.9 3.5 -1.2
v 2.4 3.5 -1.2
v 3.4 3.5 -1.3
v 3.6 3.5 -1.3
v 3.3 3.5 -1.4
v 3.4 3.5 -1.4
v 3.5 3.5 -1.4
v 3.6 3.5 -1.4
v 3.3 3.5 -1.5
v 3.5 3.5 -1.5
v 2 3.5 -2.2
v 2.3 3.5 -2.2
v 2 3.5 -2.3
v 2.3 3.5 -2.3
v 1.9 3.5 -2.5
v 2.4 3.5 -2.5
v 0.6 3.5 -2.6
v 1.2 3.5 -2.6
v 1.8 3.5 -2.6
v 2.5 3.5 -2.6
v 2 3.6 -2.2
v 2.3 3.6 -2.2
v 2 3.6 -2.3
v 2.3 3.6 -2.3
v 0.6 3.7 -0.9
v 1.2 3.7 -0.9
v 3.3 3.7 -0.9
v 3.9 3.7 -0.9
v 0.6 3.7 -1.1
v 1.2 3.7 -1.1
v 3.5 3.7 -1.5
v 3.8 3.7 -1.5
v 3.5 3.7 -2.2
v 3.8 3.7 -2.2
v 0.6 3.7 -2.6
v 1.2 3.7 -2.6
v 0.6 3.7 -2.8
v 1.2 3.7 -2.8
v 3.3 3.7 -2.8
v 3.9 3.7 -2.8
v 3.5 3.8 -1.5
v 3.8 3.8 -1.5
v 3.6 3.8 -1.7
v 3.7 3.8 -1.7
v 3.6 3.8 -2
v 3.7 3.8 -2
v 3.5 3.8 -2.2
v 3.8 3.8 -2.2
v 0.3 4 -0.9
v 0.6 4 -0.9
v 0.3 4 -2.8
v 0.6 4 -2.8
v 3.6 4.5 -1.3
v 3.7 4.5 -1.3
v 3.6 4.5 -2.4
v 3.7 4.5 -2.4
v 3.9 5.7 0
v 4 5.7 0
v 0 5.7 -3.9
v 3.9 5.7 -3.9
v 0 5.7 -4
v 4 5.7 -4

# faces
f 3/16/1 2/16/1 1/16/1
f 4/16/1 2/16/1 3/16/1
f 5/16/1 2/16/1 4/16/1
f 6/16/1 2/16/1 5/16/1
f 7/16/1 2/16/1 6/16/1
f 8/16/1 2/16/1 7/16/1
f 9/16/1 2/16/1 8/16/1
f 10/16/1 2/16/1 9/16/1
f 11/16/1 2/16/1 10/16/1
f 12/16/1 2/16/1 11/16/1
f 13/16/1 2/16/1 12/16/1
f 14/16/1 2/16/1 13/16/1
f 15/21/1 4/21/1 3/21/1
f 16/13/1 5/13/1 4/13/1
f 16/21/1 4/21/1 15/21/1
f 17/12/1 6/12/1 5/12/1
f 17/13/1 5/13/1 16/13/1
f 18/21/1 7/21/1 6/21/1
f 18/12/1 6/12/1 17/12/1
f 19/12/1 8/12/1 7/12/1
f 19/21/1 7/21/1 18/21/1
f 20/21/1 9/21/1 8/21/1
f 20/12/1 8/12/1 19/12/1
f 21/12/1 10/12/1 9/12/1
f 21/21/1 9/21/1 20/21/1
f 22/21/1 11/21/1 10/21/1
f 22/12/1 10/12/1 21/12/1
f 23/13/1 12/13/1 11/13/1
f 23/21/1 11/21/1 22/21/1
f 24/12/1 13/12/1 12/12/1
f 24/13/1 12/13/1 23/13/1
f 25/21/1 14/21/1 13/21/1
f 25/12/1 13/12/1 24/12/1
f 26/16/1 2/16/1 14/16/1
f 26/21/1 14/21/1 25/21/1
f 27/16/1 2/16/1 26/16/1
f 28/16/1 2/16/1 27/16/1
f 34/15/1 30/15/1 29/15/1
f 34/15/1 33/15/1 32/15/1
f 34/15/1 32/15/1 31/15/1
f 34/15/1 31/15/1 30/15/1
f 35/15/1 33/15/1 34/15/1
f 40/20/1 37/20/1 36/20/1
f 41/20/1 39/20/1 38/20/1
f 42/20/1 40/20/1 36/20/1
f 42/20/1 41/20/1 40/20/1
f 43/20/1 39/20/1 41/20/1
f 43/20/1 41/20/1 42/20/1
f 46/22/1 45/22/1 44/22/1
f 47/22/1 45/22/1 46/22/1
f 52/20/1 49/20/1 48/20/1
f 53/20/1 49/20/1 52/20/1
f 54/20/1 51/20/1 50/20/1
f 55/20/1 51/20/1 54/20/1
f 61/19/1 57/19/1 56/19/1
f 61/19/1 60/19/1 59/19/1
f 61/19/1 59/19/1 58/19/1
f 61/19/1 58/19/1 57/19/1
f 62/19/1 60/19/1 61/19/1
f 63/19/1 60/19/1 62/19/1
f 64/19/1 60/19/1 63/19/1
f 65/19/1 60/19/1 64/19/1
f 66/19/1 60/19/1 65/19/1
f 67/19/1 60/19/1 66/19/1
f 68/19/1 60/19/1 67/19/1
f 69/19/1 60/19/1 68/19/1
f 70/10/1 65/10/1 64/10/1
f 71/8/1 66/8/1 65/8/1
f 71/10/1 65/10/1 70/10/1
f 72/19/1 61/19/1 56/19/1
f 73/4/1 63/4/1 62/4/1
f 74/4/1 63/4/1 73/4/1
f 75/8/1 66/8/1 71/8/1
f 76/8/1 66/8/1 75/8/1
f 77/5/1 68/5/1 67/5/1
f 78/5/1 68/5/1 77/5/1
f 79/19/1 60/19/1 69/19/1
f 80/19/1 74/19/1 73/19/1
f 80/19/1 79/19/1 78/19/1
f 80/19/1 78/19/1 77/19/1
f 80/19/1 72/19/1 56/19/1
f 80/19/1 77/19/1 76/19/1
f 80/19/1 76/19/1 75/19/1
f 80/19/1 75/19/1 74/19/1
f 80/19/1 73/19/1 72/19/1
f 81/19/1 60/19/1 79/19/1
f 81/19/1 79/19/1 80/19/1
f 88/6/1 83/6/1 82/6/1
f 89/6/1 83/6/1 88/6/1
f 90/9/1 85/9/1 84/9/1
f 91/9/1 85/9/1 90/9/1
f 92/7/1 87/7/1 86/7/1
f 93/7/1 87/7/1 92/7/1
f 96/22/1 95/22/1 94/22/1
f 97/22/1 95/22/1 96/22/1
f 110/19/1 101/19/1 100/19/1
f 111/19/1 109/19/1 108/19/1
f 112/19/1 99/19/1 98/19/1
f 113/19/1 99/19/1 112/19/1
f 114/19/1 111/19/1 110/19/1
f 114/19/1 110/19/1 100/19/1
f 115/19/1 109/19/1 111/19/1
f 115/19/1 111/19/1 114/19/1
f 116/19/1 103/19/1 102/19/1
f 117/19/1 103/19/1 116/19/1
f 118/19/1 105/19/1 104/19/1
f 119/19/1 105/19/1 118/19/1
f 120/19/1 107/19/1 106/19/1
f 121/19/1 107/19/1 120/19/1
f 125/22/1 123/22/1 122/22/1
f 126/22/1 123/22/1 125/22/1
f 128/22/1 125/22/1 124/22/1
f 128/22/1 127/22/1 126/22/1
f 128/22/1 126/22/1 125/22/1
f 129/22/1 127/22/1 128/22/1
f 130/22/1 128/22/1 124/22/1
f 130/23/1 129/23/1 128/23/1
f 131/22/1 127/22/1 129/22/1
f 131/23/1 129/23/1 130/23/1
f 132/22/1 130/22/1 124/22/1
f 132/22/1 131/22/1 130/22/1
f 133/22/1 127/22/1 131/22/1
f 133/22/1 131/22/1 132/22/1
f 143/16/1 135/16/1 134/16/1
f 143/16/1 136/16/1 135/16/1
f 143/16/1 137/16/1 136/16/1
f 144/16/1 142/16/1 141/16/1
f 144/16/1 141/16/1 140/16/1
f 144/16/1 139/16/1 138/16/1
f 144/16/1 140/16/1 139/16/1
f 145/16/1 143/16/1 134/16/1
f 145/16/1 144/16/1 143/16/1
f 146/16/1 142/16/1 144/16/1
f 146/16/1 144/16/1 145/16/1
f 147/15/2 148/15/2 150/15/2
f 150/15/2 148/15/2 151/15/2
f 149/15/2 150/15/2 153/15/2
f 151/15/2 152/15/2 153/15/2
f 150/15/2 151/15/2 153/15/2
f 153/15/2 152/15/2 154/15/2
f 155/15/2 156/15/2 159/15/2
f 157/15/2 158/15/2 159/15/2
f 156/15/2 157/15/2 159/15/2
f 159/15/2 158/15/2 160/15/2
f 155/15/2 159/15/2 161/15/2
f 159/17/2 160/17/2 161/17/2
f 160/15/2 158/15/2 162/15/2
f 161/17/2 160/17/2 162/17/2
f 155/15/2 161/15/2 163/15/2
f 163/15/2 161/15/2 164/15/2
f 162/15/2 158/15/2 165/15/2
f 165/15/2 158/15/2 166/15/2
f 167/20/2 168/20/2 171/20/2
f 171/20/2 168/20/2 172/20/2
f 169/20/2 170/20/2 173/20/2
f 173/20/2 170/20/2 174/20/2
f 175/22/2 176/22/2 177/22/2
f 177/22/2 176/22/2 178/22/2
f 179/20/2 180/20/2 183/20/2
f 181/20/2 182/20/2 184/20/2
f 179/20/2 183/20/2 185/20/2
f 183/20/2 184/20/2 185/20/2
f 184/20/2 182/20/2 186/20/2
f 185/20/2 184/20/2 186/20/2
f 187/10/2 188/10/2 189/10/2
f 189/10/2 188/10/2 190/10/2
f 191/22/2 192/22/2 194/22/2
f 194/22/2 192/22/2 195/22/2
f 193/22/2 194/22/2 197/22/2
f 195/22/2 196/22/2 197/22/2
f 194/22/2 195/22/2 197/22/2
f 197/22/2 196/22/2 198/22/2
f 193/22/2 197/22/2 199/22/2
f 197/23/2 198/23/2 199/23/2
f 198/22/2 196/22/2 200/22/2
f 199/23/2 198/23/2 200/23/2
f 193/22/2 199/22/2 201/22/2
f 199/22/2 200/22/2 201/22/2
f 200/22/2 196/22/2 202/22/2
f 201/22/2 200/22/2 202/22/2
f 203/22/2 204/22/2 205/22/2
f 205/22/2 204/22/2 206/22/2
f 207/16/2 208/16/2 209/16/2
f 209/16/2 208/16/2 210/16/2
f 214/16/3 212/16/3 211/16/3
f 214/21/3 213/21/3 212/21/3
f 215/21/3 213/21/3 214/21/3
f 216/16/3 214/16/3 211/16/3
f 216/13/3 215/13/3 214/13/3
f 217/13/3 215/13/3 216/13/3
f 218/16/3 216/16/3 211/16/3
f 218/21/3 217/21/3 216/21/3
f 219/21/3 217/21/3 218/21/3
f 220/16/3 218/16/3 211/16/3
f 220/13/3 219/13/3 218/13/3
f 221/13/3 219/13/3 220/13/3
f 222/16/3 220/16/3 211/16/3
f 222/21/3 221/21/3 220/21/3
f 223/21/3 221/21/3 222/21/3
f 224/16/3 222/16/3 211/16/3
f 224/13/3 223/13/3 222/13/3
f 225/13/3 223/13/3 224/13/3
f 226/16/3 224/16/3 211/16/3
f 226/21/3 225/21/3 224/21/3
f 227/21/3 225/21/3 226/21/3
f 228/16/3 226/16/3 211/16/3
f 228/13/3 227/13/3 226/13/3
f 229/13/3 227/13/3 228/13/3
f 230/16/3 228/16/3 211/16/3
f 230/21/3 229/21/3 228/21/3
f 231/21/3 229/21/3 230/21/3
f 232/16/3 230/16/3 211/16/3
f 232/13/3 231/13/3 230/13/3
f 233/13/3 231/13/3 232/13/3
f 234/16/3 232/16/3 211/16/3
f 234/21/3 233/21/3 232/21/3
f 235/21/3 233/21/3 234/21/3
f 236/16/3 234/16/3 211/16/3
f 236/13/3 235/13/3 234/13/3
f 237/13/3 235/13/3 236/13/3
f 238/16/3 236/16/3 211/16/3
f 238/21/3 237/21/3 236/21/3
f 239/21/3 237/21/3 238/21/3
f 240/16/3 238/16/3 211/16/3
f 240/13/3 239/13/3 238/13/3
f 241/13/3 239/13/3 240/13/3
f 242/16/3 240/16/3 211/16/3
f 242/12/3 241/12/3 240/12/3
f 243/12/3 241/12/3 242/12/3
f 244/16/3 242/16/3 211/16/3
f 244/21/3 243/21/3 242/21/3
f 245/21/3 243/21/3 244/21/3
f 247/16/3 245/16/3 244/16/3
f 247/16/3 246/16/3 245/16/3
f 247/16/3 244/16/3 211/16/3
f 248/16/3 246/16/3 247/16/3
f 251/15/3 250/15/3 249/15/3
f 252/15/3 250/15/3 251/15/3
f 253/15/3 250/15/3 252/15/3
f 254/15/3 250/15/3 253/15/3
f 255/15/3 253/15/3 252/15/3
f 256/15/3 253/15/3 255/15/3
f 257/15/3 253/15/3 256/15/3
f 258/15/3 253/15/3 257/15/3
f 261/19/3 260/19/3 259/19/3
f 262/19/3 260/19/3 261/19/3
f 263/19/3 260/19/3 262/19/3
f 264/19/3 260/19/3 263/19/3
f 267/20/3 266/20/3 265/20/3
f 268/20/3 266/20/3 267/20/3
f 270/20/3 266/20/3 268/20/3
f 271/20/3 270/20/3 269/20/3
f 272/20/3 266/20/3 270/20/3
f 272/20/3 270/20/3 271/20/3
f 275/4/3 274/4/3 273/4/3
f 276/4/3 274/4/3 275/4/3
f 279/6/3 278/6/3 277/6/3
f 280/6/3 278/6/3 279/6/3
f 283/22/3 282/22/3 281/22/3
f 284/22/3 282/22/3 283/22/3
f 287/10/3 286/10/3 285/10/3
f 288/10/3 286/10/3 287/10/3
f 292/8/3 290/8/3 289/8/3
f 295/8/3 292/8/3 291/8/3
f 296/8/3 290/8/3 292/8/3
f 296/8/3 292/8/3 295/8/3
f 297/22/3 294/22/3 293/22/3
f 298/22/3 294/22/3 297/22/3
f 301/22/3 300/22/3 299/22/3
f 302/22/3 300/22/3 301/22/3
f 305/9/3 304/9/3 303/9/3
f 306/9/3 304/9/3 305/9/3
f 309/22/3 308/22/3 307/22/3
f 310/22/3 308/22/3 309/22/3
f 313/7/3 312/7/3 311/7/3
f 314/7/3 312/7/3 313/7/3
f 317/5/3 316/5/3 315/5/3
f 318/5/3 316/5/3 317/5/3
f 321/20/3 320/20/3 319/20/3
f 322/20/3 320/20/3 321/20/3
f 325/20/3 324/20/3 323/20/3
f 326/20/3 324/20/3 325/20/3
f 329/15/3 328/15/3 327/15/3
f 330/15/3 328/15/3 329/15/3
f 333/19/3 332/19/3 331/19/3
f 334/19/3 332/19/3 333/19/3
f 337/16/3 336/16/3 335/16/3
f 338/16/3 336/16/3 337/16/3
f 339/16/3 336/16/3 338/16/3
f 340/16/3 336/16/3 339/16/3
f 341/16/3 336/16/3 340/16/3
f 342/16/3 336/16/3 341/16/3
f 343/16/3 336/16/3 342/16/3
f 344/16/3 336/16/3 343/16/3
f 345/16/3 336/16/3 344/16/3
f 346/16/3 336/16/3 345/16/3
f 347/16/3 336/16/3 346/16/3
f 348/16/3 336/16/3 347/16/3
f 349/16/3 336/16/3 348/16/3
f 350/16/3 336/16/3 349/16/3
f 351/16/3 336/16/3 350/16/3
f 352/16/3 336/16/3 351/16/3
f 353/16/3 336/16/3 352/16/3
f 354/16/3 336/16/3 353/16/3
f 355/16/3 336/16/3 354/16/3
f 356/19/4 357/19/4 358/19/4
f 358/19/4 357/19/4 359/19/4
f 360/15/4 361/15/4 362/15/4
f 362/15/4 361/15/4 363/15/4
f 364/20/4 365/20/4 366/20/4
f 366/20/4 365/20/4 367/20/4
f 368/20/4 369/20/4 370/20/4
f 370/20/4 369/20/4 371/20/4
f 372/4/4 373/4/4 374/4/4
f 374/4/4 373/4/4 375/4/4
f 376/6/4 377/6/4 378/6/4
f 378/6/4 377/6/4 379/6/4
f 380/8/4 381/8/4 382/8/4
f 382/8/4 381/8/4 383/8/4
f 384/22/4 385/22/4 386/22/4
f 386/22/4 385/22/4 387/22/4
f 388/9/4 389/9/4 390/9/4
f 390/9/4 389/9/4 391/9/4
f 392/22/4 393/22/4 394/22/4
f 394/22/4 393/22/4 395/22/4
f 396/22/4 397/22/4 398/22/4
f 398/22/4 397/22/4 399/22/4
f 400/22/4 401/22/4 402/22/4
f 402/22/4 401/22/4 403/22/4
f 404/5/4 405/5/4 406/5/4
f 406/5/4 405/5/4 407/5/4
f 408/20/4 409/20/4 410/20/4
f 410/20/4 409/20/4 411/20/4
f 411/20/4 409/20/4 413/20/4
f 412/20/4 413/20/4 414/20/4
f 413/20/4 409/20/4 415/20/4
f 414/20/4 413/20/4 415/20/4
f 416/15/4 417/15/4 418/15/4
f 418/15/4 417/15/4 419/15/4
f 419/15/4 417/15/4 420/15/4
f 420/15/4 417/15/4 421/15/4
f 421/15/4 417/15/4 422/15/4
f 420/15/4 421/15/4 423/15/4
f 423/15/4 421/15/4 424/15/4
f 424/15/4 421/15/4 425/15/4
f 425/15/4 421/15/4 426/15/4
f 426/15/4 421/15/4 427/15/4
f 427/15/4 421/15/4 428/15/4
f 429/19/4 430/19/4 431/19/4
f 431/19/4 430/19/4 432/19/4
f 432/19/4 430/19/4 433/19/4
f 433/19/4 430/19/4 434/19/4
f 434/19/4 430/19/4 435/19/4
f 435/19/4 430/19/4 436/19/4
f 437/16/4 438/16/4 439/16/4
f 439/16/4 438/16/4 440/16/4
f 443/16/5 442/16/5 441/16/5
f 444/16/5 442/16/5 443/16/5
f 445/16/5 443/16/5 441/16/5
f 445/2/5 444/2/5 443/2/5
f 446/16/5 442/16/5 444/16/5
f 446/2/5 444/2/5 445/2/5
f 447/16/5 445/16/5 441/16/5
f 447/16/5 446/16/5 445/16/5
f 448/16/5 442/16/5 446/16/5
f 448/16/5 446/16/5 447/16/5
f 452/20/5 450/20/5 449/20/5
f 453/20/5 450/20/5 452/20/5
f 455/20/5 452/20/5 451/20/5
f 456/1/5 453/1/5 452/1/5
f 456/20/5 452/20/5 455/20/5
f 457/20/5 454/20/5 453/20/5
f 457/1/5 453/1/5 456/1/5
f 458/20/5 454/20/5 457/20/5
f 459/20/5 457/20/5 456/20/5
f 460/20/5 457/20/5 459/20/5
f 463/19/5 462/19/5 461/19/5
f 464/19/5 462/19/5 463/19/5
f 467/19/5 466/19/5 465/19/5
f 468/19/5 466/19/5 467/19/5
f 471/19/5 470/19/5 469/19/5
f 472/19/5 470/19/5 471/19/5
f 473/19/5 471/19/5 469/19/5
f 475/19/5 473/19/5 469/19/5
f 475/19/5 474/19/5 473/19/5
f 476/19/5 474/19/5 475/19/5
f 477/19/5 475/19/5 469/19/5
f 478/19/5 475/19/5 477/19/5
f 481/19/5 480/19/5 479/19/5
f 482/19/5 480/19/5 481/19/5
f 485/22/5 484/22/5 483/22/5
f 486/22/5 484/22/5 485/22/5
f 489/22/5 488/22/5 487/22/5
f 490/22/5 488/22/5 489/22/5
f 494/13/6 495/13/6 508/13/6
f 495/21/6 496/21/6 508/21/6
f 508/21/6 496/21/6 509/21/6
f 496/13/6 497/13/6 510/13/6
f 497/21/6 498/21/6 510/21/6
f 510/21/6 498/21/6 511/21/6
f 502/13/6 503/13/6 512/13/6
f 503/21/6 504/21/6 512/21/6
f 504/13/6 505/13/6 513/13/6
f 512/21/6 504/21/6 513/21/6
f 505/12/6 506/12/6 514/12/6
f 513/13/6 505/13/6 514/13/6
f 506/21/6 507/21/6 515/21/6
f 514/12/6 506/12/6 515/12/6
f 515/21/6 507/21/6 516/21/6
f 491/21/6 492/21/6 517/21/6
f 517/21/6 492/21/6 518/21/6
f 492/13/6 493/13/6 519/13/6
f 493/21/6 494/21/6 519/21/6
f 494/13/6 508/13/6 520/13/6
f 519/21/6 494/21/6 520/21/6
f 500/13/6 501/13/6 521/13/6
f 501/21/6 502/21/6 521/21/6
f 513/13/6 514/13/6 522/13/6
f 521/21/6 502/21/6 522/21/6
f 512/13/6 513/13/6 522/13/6
f 502/13/6 512/13/6 522/13/6
f 522/13/6 514/13/6 523/13/6
f 523/13/6 514/13/6 524/13/6
f 524/13/6 514/13/6 525/13/6
f 525/13/6 514/13/6 526/13/6
f 515/12/6 516/12/6 527/12/6
f 514/21/6 515/21/6 527/21/6
f 516/21/6 507/21/6 528/21/6
f 527/12/6 516/12/6 528/12/6
f 519/13/6 520/13/6 529/13/6
f 492/13/6 519/13/6 529/13/6
f 529/13/6 520/13/6 530/13/6
f 530/13/6 520/13/6 531/13/6
f 520/13/6 508/13/6 532/13/6
f 531/13/6 520/13/6 532/13/6
f 500/13/6 521/13/6 533/13/6
f 521/13/6 522/13/6 533/13/6
f 522/13/6 523/13/6 533/13/6
f 533/13/6 523/13/6 534/13/6
f 534/13/6 523/13/6 535/13/6
f 535/13/6 523/13/6 536/13/6
f 529/21/6 530/21/6 537/21/6
f 492/13/6 529/13/6 537/13/6
f 530/12/6 531/12/6 538/12/6
f 537/21/6 530/21/6 538/21/6
f 531/21/6 532/21/6 539/21/6
f 538/12/6 531/12/6 539/12/6
f 499/21/6 500/21/6 540/21/6
f 540/21/6 500/21/6 541/21/6
f 533/21/6 534/21/6 542/21/6
f 534/12/6 535/12/6 543/12/6
f 542/21/6 534/21/6 543/21/6
f 517/12/6 518/12/6 544/12/6
f 491/21/6 517/21/6 544/21/6
f 518/21/6 492/21/6 545/21/6
f 544/12/6 518/12/6 545/12/6
f 492/13/6 537/13/6 546/13/6
f 537/12/6 538/12/6 546/12/6
f 538/21/6 539/21/6 547/21/6
f 546/12/6 538/12/6 547/12/6
f 510/12/6 511/12/6 548/12/6
f 496/13/6 510/13/6 548/13/6
f 511/21/6 498/21/6 549/21/6
f 548/12/6 511/12/6 549/12/6
f 542/12/6 543/12/6 550/12/6
f 533/21/6 542/21/6 550/21/6
f 543/12/6 535/12/6 551/12/6
f 550/12/6 543/12/6 551/12/6
f 536/13/6 523/13/6 552/13/6
f 523/21/6 524/21/6 552/21/6
f 524/12/6 525/12/6 553/12/6
f 552/21/6 524/21/6 553/21/6
f 525/21/6 526/21/6 554/21/6
f 553/12/6 525/12/6 554/12/6
f 514/21/6 527/21/6 555/21/6
f 526/13/6 514/13/6 555/13/6
f 527/21/6 528/21/6 555/21/6
f 528/21/6 507/21/6 556/21/6
f 555/21/6 528/21/6 556/21/6
f 552/12/6 553/12/6 557/12/6
f 536/13/6 552/13/6 557/13/6
f 553/21/6 554/21/6 558/21/6
f 557/12/6 553/12/6 558/12/6
f 526/13/6 555/13/6 559/13/6
f 555/13/6 556/13/6 559/13/6
f 559/13/6 556/13/6 560/13/6
f 560/13/6 556/13/6 561/13/6
f 532/13/6 508/13/6 562/13/6
f 508/12/6 509/12/6 562/12/6
f 509/21/6 496/21/6 563/21/6
f 562/12/6 509/12/6 563/12/6
f 540/12/6 541/12/6 564/12/6
f 499/21/6 540/21/6 564/21/6
f 541/21/6 500/21/6 565/21/6
f 564/12/6 541/12/6 565/12/6
f 559/12/6 560/12/6 566/12/6
f 560/21/6 561/21/6 567/21/6
f 566/12/6 560/12/6 567/12/6
f 563/21/6 496/21/6 568/21/6
f 562/21/6 563/21/6 568/21/6
f 568/21/6 496/21/6 569/21/6
f 551/12/6 535/12/6 570/12/6
f 550/21/6 551/21/6 570/21/6
f 535/21/6 536/21/6 571/21/6
f 570/12/6 535/12/6 571/12/6
f 559/12/6 566/12/6 572/12/6
f 526/13/6 559/13/6 572/13/6
f 566/21/6 567/21/6 573/21/6
f 572/12/6 566/12/6 573/12/6
f 545/21/6 492/21/6 574/21/6
f 544/21/6 545/21/6 574/21/6
f 492/13/6 546/13/6 575/13/6
f 574/21/6 492/21/6 575/21/6
f 546/21/6 547/21/6 576/21/6
f 575/13/6 546/13/6 576/13/6
f 532/13/6 562/13/6 577/13/6
f 576/21/6 547/21/6 577/21/6
f 539/21/6 532/21/6 577/21/6
f 547/21/6 539/21/6 577/21/6
f 562/21/6 568/21/6 578/21/6
f 577/13/6 562/13/6 578/13/6
f 578/21/6 568/21/6 579/21/6
f 496/13/6 548/13/6 580/13/6
f 548/21/6 549/21/6 580/21/6
f 549/21/6 498/21/6 581/21/6
f 580/21/6 549/21/6 581/21/6
f 498/13/6 499/13/6 581/13/6
f 564/21/6 565/21/6 582/21/6
f 581/13/6 499/13/6 582/13/6
f 499/21/6 564/21/6 582/21/6
f 500/13/6 533/13/6 583/13/6
f 582/21/6 565/21/6 583/21/6
f 565/21/6 500/21/6 583/21/6
f 533/21/6 550/21/6 584/21/6
f 583/13/6 533/13/6 584/13/6
f 550/21/6 570/21/6 584/21/6
f 570/21/6 571/21/6 584/21/6
f 584/21/6 571/21/6 585/21/6
f 554/21/6 526/21/6 586/21/6
f 558/21/6 554/21/6 586/21/6
f 557/21/6 558/21/6 586/21/6
f 526/13/6 572/13/6 587/13/6
f 586/21/6 526/21/6 587/21/6
f 572/21/6 573/21/6 588/21/6
f 587/13/6 572/13/6 588/13/6
f 573/21/6 567/21/6 589/21/6
f 588/21/6 573/21/6 589/21/6
f 567/21/6 561/21/6 589/21/6
f 491/21/6 544/21/6 590/21/6
f 544/21/6 574/21/6 590/21/6
f 590/21/6 574/21/6 591/21/6
f 491/21/6 590/21/6 592/21/6
f 590/12/6 591/12/6 592/12/6
f 591/21/6 574/21/6 593/21/6
f 592/12/6 591/12/6 593/12/6
f 582/3/6 583/3/6 594/3/6
f 581/3/6 582/3/6 594/3/6
f 583/3/6 584/3/6 594/3/6
f 584/3/6 585/3/6 594/3/6
f 580/3/6 581/3/6 594/3/6
f 594/3/6 585/3/6 595/3/6
f 595/3/6 585/3/6 596/3/6
f 596/3/6 585/3/6 597/3/6
f 592/21/6 593/21/6 598/21/6
f 491/21/6 592/21/6 598/21/6
f 593/21/6 574/21/6 599/21/6
f 598/21/6 593/21/6 599/21/6
f 580/3/6 594/3/6 600/3/6
f 595/3/6 596/3/6 601/3/6
f 601/3/6 596/3/6 602/3/6
f 597/3/6 585/3/6 603/3/6
f 491/21/6 598/21/6 604/21/6
f 598/12/6 599/12/6 604/12/6
f 599/21/6 574/21/6 605/21/6
f 604/12/6 599/12/6 605/12/6
f 568/12/6 569/12/6 606/12/6
f 579/21/6 568/21/6 606/21/6
f 569/21/6 496/21/6 607/21/6
f 606/12/6 569/12/6 607/12/6
f 585/21/6 571/21/6 608/21/6
f 571/21/6 536/21/6 608/21/6
f 536/13/6 557/13/6 609/13/6
f 608/21/6 536/21/6 609/21/6
f 604/21/6 605/21/6 610/21/6
f 491/21/6 604/21/6 610/21/6
f 605/21/6 574/21/6 611/21/6
f 610/21/6 605/21/6 611/21/6
f 610/13/6 611/13/6 612/13/6
f 612/13/6 611/13/6 613/13/6
f 606/21/6 607/21/6 614/21/6
f 579/21/6 606/21/6 614/21/6
f 607/21/6 496/21/6 615/21/6
f 614/21/6 607/21/6 615/21/6
f 496/13/6 580/13/6 615/13/6
f 585/21/6 608/21/6 616/21/6
f 608/12/6 609/12/6 617/12/6
f 616/21/6 608/21/6 617/21/6
f 609/13/6 557/13/6 618/13/6
f 617/12/6 609/12/6 618/12/6
f 612/12/6 613/12/6 619/12/6
f 619/12/6 613/12/6 620/12/6
f 614/13/6 615/13/6 621/13/6
f 615/13/6 580/13/6 622/13/6
f 621/13/6 615/13/6 622/13/6
f 619/21/6 620/21/6 623/21/6
f 623/21/6 620/21/6 624/21/6
f 616/12/6 617/12/6 625/12/6
f 585/21/6 616/21/6 625/21/6
f 617/21/6 618/21/6 626/21/6
f 625/12/6 617/12/6 626/12/6
f 623/12/6 624/12/6 627/12/6
f 624/21/6 620/21/6 628/21/6
f 627/12/6 624/12/6 628/12/6
f 621/21/6 622/21/6 629/21/6
f 622/13/6 580/13/6 630/13/6
f 629/21/6 622/21/6 630/21/6
f 627/21/6 628/21/6 631/21/6
f 628/21/6 620/21/6 632/21/6
f 631/21/6 628/21/6 632/21/6
f 621/21/6 629/21/6 633/21/6
f 629/12/6 630/12/6 633/12/6
f 630/13/6 580/13/6 634/13/6
f 633/12/6 630/12/6 634/12/6
f 618/13/6 557/13/6 635/13/6
f 557/21/6 586/21/6 635/21/6
f 635/21/6 586/21/6 636/21/6
f 602/3/6 603/3/6 637/3/6
f 601/3/6 602/3/6 637/3/6
f 580/3/6 600/3/6 637/3/6
f 600/3/6 601/3/6 637/3/6
f 637/3/6 603/3/6 638/3/6
f 638/3/6 603/3/6 639/3/6
f 603/3/6 585/3/6 640/3/6
f 639/3/6 603/3/6 640/3/6
f 635/13/6 636/13/6 641/13/6
f 618/13/6 635/13/6 641/13/6
f 641/13/6 636/13/6 642/13/6
f 642/13/6 636/13/6 643/13/6
f 580/3/6 637/3/6 644/3/6
f 638/3/6 639/3/6 645/3/6
f 645/3/6 639/3/6 646/3/6
f 640/3/6 585/3/6 647/3/6
f 642/11/6 643/11/6 648/11/6
f 641/21/6 642/21/6 648/21/6
f 648/11/6 643/11/6 649/11/6
f 631/12/6 632/12/6 650/12/6
f 632/21/6 620/21/6 651/21/6
f 650/12/6 632/12/6 651/12/6
f 650/21/6 651/21/6 652/21/6
f 651/21/6 620/21/6 652/21/6
f 633/21/6 634/21/6 660/21/6
f 621/21/6 633/21/6 660/21/6
f 645/3/6 646/3/6 661/3/6
f 634/13/6 580/13/6 661/13/6
f 580/3/6 644/3/6 661/3/6
f 646/3/6 647/3/6 661/3/6
f 644/3/6 645/3/6 661/3/6
f 661/3/6 647/3/6 662/3/6
f 662/3/6 647/3/6 663/3/6
f 663/3/6 647/3/6 664/3/6
f 664/3/6 647/3/6 665/3/6
f 647/3/6 585/3/6 666/3/6
f 665/3/6 647/3/6 666/3/6
f 666/3/6 585/3/6 667/3/6
f 585/21/6 625/21/6 668/21/6
f 667/3/6 585/3/6 668/3/6
f 625/21/6 626/21/6 668/21/6
f 648/21/6 649/21/6 669/21/6
f 658/12/6 659/12/6 675/12/6
f 657/13/6 658/13/6 675/13/6
f 659/21/6 660/21/6 676/21/6
f 675/12/6 659/12/6 676/12/6
f 671/21/6 672/21/6 677/21/6
f 672/12/6 673/12/6 678/12/6
f 677/21/6 672/21/6 678/21/6
f 673/21/6 674/21/6 679/21/6
f 678/12/6 673/12/6 679/12/6
f 655/12/6 656/12/6 680/12/6
f 654/21/6 655/21/6 680/21/6
f 656/21/6 657/21/6 681/21/6
f 680/12/6 656/12/6 681/12/6
f 634/13/6 661/13/6 682/13/6
f 661/21/6 662/21/6 682/21/6
f 682/21/6 662/21/6 683/21/6
f 663/21/6 664/21/6 684/21/6
f 662/13/6 663/13/6 684/13/6
f 664/12/6 665/12/6 685/12/6
f 684/21/6 664/21/6 685/21/6
f 665/21/6 666/21/6 686/21/6
f 685/12/6 665/12/6 686/12/6
f 671/21/6 677/21/6 687/21/6
f 670/13/6 671/13/6 687/13/6
f 677/12/6 678/12/6 688/12/6
f 687/21/6 677/21/6 688/21/6
f 678/21/6 679/21/6 689/21/6
f 688/12/6 678/12/6 689/12/6
f 679/21/6 674/21/6 690/21/6
f 689/21/6 679/21/6 690/21/6
f 654/21/6 680/21/6 691/21/6
f 653/13/6 654/13/6 691/13/6
f 680/21/6 681/21/6 691/21/6
f 657/13/6 675/13/6 692/13/6
f 691/21/6 681/21/6 692/21/6
f 681/21/6 657/21/6 692/21/6
f 670/13/6 687/13/6 693/13/6
f 688/13/6 689/13/6 693/13/6
f 689/13/6 690/13/6 693/13/6
f 687/13/6 688/13/6 693/13/6
f 693/13/6 690/13/6 694/13/6
f 653/13/6 691/13/6 695/13/6
f 691/13/6 692/13/6 695/13/6
f 692/13/6 675/13/6 696/13/6
f 695/13/6 692/13/6 696/13/6
f 667/21/6 668/21/6 697/21/6
f 666/13/6 667/13/6 697/13/6
f 626/21/6 618/21/6 698/21/6
f 697/21/6 668/21/6 698/21/6
f 618/13/6 641/13/6 698/13/6
f 668/21/6 626/21/6 698/21/6
f 683/21/6 662/21/6 699/21/6
f 682/12/6 683/12/6 699/12/6
f 699/21/6 662/21/6 700/21/6
f 666/13/6 697/13/6 701/13/6
f 697/13/6 698/13/6 701/13/6
f 698/13/6 641/13/6 702/13/6
f 701/13/6 698/13/6 702/13/6
f 634/13/6 682/13/6 703/13/6
f 699/12/6 700/12/6 703/12/6
f 682/12/6 699/12/6 703/12/6
f 700/21/6 662/21/6 704/21/6
f 703/12/6 700/12/6 704/12/6
f 662/13/6 684/13/6 705/13/6
f 704/21/6 662/21/6 705/21/6
f 684/12/6 685/12/6 706/12/6
f 705/13/6 684/13/6 706/13/6
f 685/21/6 686/21/6 707/21/6
f 706/12/6 685/12/6 707/12/6
f 701/21/6 702/21/6 708/21/6
f 708/21/6 702/21/6 709/21/6
f 650/21/6 652/21/6 710/21/6
f 652/21/6 653/21/6 710/21/6
f 653/13/6 695/13/6 711/13/6
f 710/21/6 653/21/6 711/21/6
f 660/21/6 634/21/6 712/21/6
f 676/21/6 660/21/6 712/21/6
f 675/21/6 676/21/6 712/21/6
f 634/13/6 703/13/6 713/13/6
f 712/21/6 634/21/6 713/21/6
f 704/13/6 705/13/6 713/13/6
f 703/13/6 704/13/6 713/13/6
f 705/13/6 706/13/6 713/13/6
f 713/13/6 706/13/6 714/13/6
f 714/13/6 706/13/6 715/13/6
f 708/12/6 709/12/6 716/12/6
f 701/21/6 708/21/6 716/21/6
f 709/21/6 702/21/6 717/21/6
f 716/12/6 709/12/6 717/12/6
f 650/21/6 710/21/6 718/21/6
f 710/12/6 711/12/6 719/12/6
f 718/21/6 710/21/6 719/21/6
f 711/13/6 695/13/6 720/13/6
f 719/12/6 711/12/6 720/12/6
f 696/13/6 675/13/6 721/13/6
f 675/21/6 712/21/6 721/21/6
f 712/12/6 713/12/6 722/12/6
f 721/21/6 712/21/6 722/21/6
f 713/13/6 714/13/6 723/13/6
f 722/12/6 713/12/6 723/12/6
f 701/21/6 716/21/6 724/21/6
f 716/21/6 717/21/6 724/21/6
f 724/21/6 717/21/6 725/21/6
f 718/13/6 719/13/6 726/13/6
f 719/13/6 720/13/6 726/13/6
f 726/13/6 720/13/6 727/13/6
f 720/13/6 695/13/6 728/13/6
f 727/13/6 720/13/6 728/13/6
f 696/13/6 721/13/6 729/13/6
f 721/13/6 722/13/6 729/13/6
f 722/13/6 723/13/6 729/13/6
f 729/13/6 723/13/6 730/13/6
f 723/13/6 714/13/6 731/13/6
f 730/13/6 723/13/6 731/13/6
f 714/21/6 715/21/6 732/21/6
f 731/13/6 714/13/6 732/13/6
f 732/21/6 715/21/6 733/21/6
f 666/13/6 701/13/6 734/13/6
f 701/21/6 724/21/6 734/21/6
f 724/12/6 725/12/6 735/12/6
f 734/21/6 724/21/6 735/21/6
f 725/21/6 717/21/6 736/21/6
f 735/12/6 725/12/6 736/12/6
f 648/21/6 669/21/6 737/21/6
f 641/21/6 648/21/6 737/21/6
f 669/21/6 670/21/6 737/21/6
f 737/21/6 670/21/6 738/21/6
f 693/21/6 694/21/6 739/21/6
f 739/21/6 694/21/6 740/21/6
f 726/12/6 727/12/6 741/12/6
f 727/21/6 728/21/6 742/21/6
f 741/12/6 727/12/6 742/12/6
f 729/12/6 730/12/6 743/12/6
f 696/13/6 729/13/6 743/13/6
f 730/21/6 731/21/6 744/21/6
f 743/12/6 730/12/6 744/12/6
f 731/13/6 732/13/6 745/13/6
f 732/12/6 733/12/6 745/12/6
f 733/21/6 715/21/6 746/21/6
f 745/12/6 733/12/6 746/12/6
f 641/21/6 737/21/6 747/21/6
f 737/12/6 738/12/6 747/12/6
f 738/21/6 670/21/6 748/21/6
f 747/12/6 738/12/6 748/12/6
f 670/13/6 693/13/6 749/13/6
f 748/21/6 670/21/6 749/21/6
f 693/21/6 739/21/6 750/21/6
f 739/12/6 740/12/6 751/12/6
f 750/21/6 739/21/6 751/21/6
f 741/21/6 742/21/6 752/21/6
f 742/21/6 728/21/6 753/21/6
f 752/21/6 742/21/6 753/21/6
f 728/13/6 695/13/6 753/13/6
f 695/21/6 696/21/6 754/21/6
f 753/13/6 695/13/6 754/13/6
f 696/13/6 743/13/6 755/13/6
f 754/21/6 696/21/6 755/21/6
f 743/21/6 744/21/6 756/21/6
f 755/13/6 743/13/6 756/13/6
f 731/13/6 745/13/6 757/13/6
f 756/21/6 744/21/6 757/21/6
f 744/21/6 731/21/6 757/21/6
f 745/21/6 746/21/6 758/21/6
f 757/13/6 745/13/6 758/13/6
f 715/13/6 706/13/6 759/13/6
f 758/21/6 746/21/6 759/21/6
f 746/21/6 715/21/6 759/21/6
f 706/21/6 707/21/6 760/21/6
f 759/13/6 706/13/6 760/13/6
f 666/13/6 734/13/6 761/13/6
f 760/21/6 707/21/6 761/21/6
f 686/21/6 666/21/6 761/21/6
f 707/21/6 686/21/6 761/21/6
f 734/12/6 735/12/6 762/12/6
f 761/13/6 734/13/6 762/13/6
f 735/21/6 736/21/6 763/21/6
f 762/12/6 735/12/6 763/12/6
f 736/21/6 717/21/6 764/21/6
f 763/21/6 736/21/6 764/21/6
f 717/21/6 702/21/6 764/21/6
f 702/13/6 641/13/6 764/13/6
f 747/21/6 748/21/6 765/21/6
f 764/13/6 641/13/6 765/13/6
f 641/21/6 747/21/6 765/21/6
f 748/12/6 749/12/6 766/12/6
f 765/21/6 748/21/6 766/21/6
f 749/13/6 693/13/6 767/13/6
f 766/12/6 749/12/6 767/12/6
f 693/21/6 750/21/6 768/21/6
f 767/13/6 693/13/6 768/13/6
f 750/12/6 751/12/6 769/12/6
f 768/21/6 750/21/6 769/21/6
f 751/12/6 740/12/6 770/12/6
f 769/12/6 751/12/6 770/12/6
f 771/19/6 772/19/6 773/19/6
f 773/19/6 772/19/6 774/19/6
f 775/19/6 776/19/6 777/19/6
f 777/19/6 776/19/6 778/19/6
f 775/19/6 777/19/6 779/19/6
f 779/19/6 777/19/6 780/19/6
f 781/19/6 782/19/6 783/19/6
f 783/19/6 782/19/6 784/19/6
f 781/19/6 783/19/6 785/19/6
f 781/19/6 785/19/6 787/19/6
f 785/19/6 786/19/6 787/19/6
f 787/19/6 786/19/6 788/19/6
f 781/19/6 787/19/6 789/19/6
f 789/19/6 787/19/6 790/19/6
f 791/19/6 792/19/6 793/19/6
f 793/19/6 792/19/6 794/19/6
f 795/10/6 796/10/6 797/10/6
f 797/10/6 796/10/6 798/10/6
f 801/20/6 802/20/6 803/20/6
f 803/20/6 802/20/6 804/20/6
f 805/6/6 806/6/6 808/6/6
f 808/6/6 806/6/6 809/6/6
f 809/6/6 806/6/6 810/6/6
f 807/10/6 808/10/6 811/10/6
f 808/10/6 809/10/6 811/10/6
f 811/10/6 809/10/6 812/10/6
f 803/1/6 804/1/6 813/1/6
f 813/1/6 804/1/6 814/1/6
f 803/1/6 813/1/6 815/1/6
f 814/1/6 804/1/6 816/1/6
f 801/20/6 803/20/6 817/20/6
f 815/1/6 816/1/6 817/1/6
f 803/1/6 815/1/6 817/1/6
f 816/1/6 804/1/6 818/1/6
f 817/1/6 816/1/6 818/1/6
f 804/20/6 802/20/6 818/20/6
f 799/17/6 800/17/6 819/17/6
f 819/17/6 800/17/6 820/17/6
f 801/20/6 817/20/6 821/20/6
f 817/20/6 818/20/6 821/20/6
f 818/20/6 802/20/6 822/20/6
f 821/20/6 818/20/6 822/20/6
f 823/22/6 824/22/6 825/22/6
f 825/22/6 824/22/6 826/22/6
f 827/15/6 828/15/6 831/15/6
f 831/15/6 828/15/6 832/15/6
f 829/19/6 830/19/6 833/19/6
f 833/19/6 830/19/6 834/19/6
f 829/19/6 833/19/6 835/19/6
f 834/19/6 830/19/6 836/19/6
f 837/15/6 838/15/6 839/15/6
f 839/15/6 838/15/6 840/15/6
f 829/19/6 835/19/6 841/19/6
f 835/19/6 836/19/6 841/19/6
f 836/19/6 830/19/6 842/19/6
f 841/19/6 836/19/6 842/19/6
f 843/22/6 844/22/6 845/22/6
f 845/22/6 844/22/6 846/22/6
f 843/22/6 845/22/6 847/22/6
f 846/22/6 844/22/6 848/22/6
f 843/22/6 847/22/6 849/22/6
f 847/22/6 848/22/6 849/22/6
f 848/22/6 844/22/6 850/22/6
f 849/22/6 848/22/6 850/22/6
f 851/15/6 852/15/6 853/15/6
f 853/15/6 852/15/6 854/15/6
f 855/22/6 856/22/6 857/22/6
f 857/22/6 856/22/6 858/22/6
f 859/16/6 860/16/6 862/16/6
f 861/16/6 862/16/6 863/16/6
f 862/16/6 860/16/6 864/16/6
f 863/16/6 862/16/6 864/16/6
